<svg width="42" height="43" viewBox="0 0 42 43" fill="none" xmlns="http://www.w3.org/2000/svg">
<path d="M38.1596 18.0726H36.75V18H21V25H30.8901C29.4473 29.0749 25.5701 32 21 32C15.2014 32 10.5 27.2986 10.5 21.5C10.5 15.7014 15.2014 11 21 11C23.6766 11 26.1117 12.0097 27.9659 13.6591L32.9158 8.70925C29.7903 5.79638 25.6095 4 21 4C11.3356 4 3.5 11.8356 3.5 21.5C3.5 31.1644 11.3356 39 21 39C30.6644 39 38.5 31.1644 38.5 21.5C38.5 20.3266 38.3792 19.1813 38.1596 18.0726Z" fill="#FFC107"/>
<path d="M5.51782 13.3546L11.2674 17.5713C12.8232 13.7195 16.5909 11 21.0001 11C23.6767 11 26.1118 12.0098 27.9659 13.6591L32.9158 8.70925C29.7903 5.79638 25.6096 4 21.0001 4C14.2783 4 8.44907 7.79488 5.51782 13.3546Z" fill="#FF3D00"/>
<path d="M21 39.0006C25.5203 39.0006 29.6275 37.2707 32.7329 34.4576L27.3167 29.8744C25.5009 31.256 23.2817 32.0031 21 32.0006C16.4483 32.0006 12.5834 29.0982 11.1274 25.0479L5.42065 29.4447C8.3169 35.1121 14.1987 39.0006 21 39.0006Z" fill="#4CAF50"/>
<path d="M38.1596 18.0726H36.75V18H21V25H30.8901C30.1999 26.9394 28.9567 28.634 27.314 29.8746L27.3166 29.8729L32.7329 34.4561C32.3496 34.8044 38.5 30.25 38.5 21.5C38.5 20.3266 38.3792 19.1813 38.1596 18.0726Z" fill="#1976D2"/>
</svg>
