<svg width="83" height="83" viewBox="0 0 83 83" fill="none" xmlns="http://www.w3.org/2000/svg">
<path d="M51.875 72.625H44.9583V65.7083H51.875V72.625ZM44.9583 48.4167H38.0417V65.7083H44.9583V48.4167ZM72.625 41.5H65.7083V55.3333H72.625V41.5ZM65.7083 34.5833H58.7917V41.5H65.7083V34.5833ZM24.2083 41.5H17.2917V48.4167H24.2083V41.5ZM17.2917 34.5833H10.375V41.5H17.2917V34.5833ZM41.5 17.2917H48.4167V10.375H41.5V17.2917ZM15.5625 15.5625V25.9375H25.9375V15.5625H15.5625ZM31.125 31.125H10.375V10.375H31.125V31.125ZM15.5625 57.0625V67.4375H25.9375V57.0625H15.5625ZM31.125 72.625H10.375V51.875H31.125V72.625ZM57.0625 15.5625V25.9375H67.4375V15.5625H57.0625ZM72.625 31.125H51.875V10.375H72.625V31.125ZM65.7083 65.7083V55.3333H51.875V62.25H58.7917V72.625H72.625V65.7083H65.7083ZM58.7917 41.5H44.9583V48.4167H58.7917V41.5ZM44.9583 34.5833H24.2083V41.5H31.125V48.4167H38.0417V41.5H44.9583V34.5833ZM48.4167 31.125V24.2083H41.5V17.2917H34.5833V31.125H48.4167ZM23.3438 18.1562H18.1562V23.3438H23.3438V18.1562ZM23.3438 59.6562H18.1562V64.8438H23.3438V59.6562ZM64.8438 18.1562H59.6562V23.3438H64.8438V18.1562Z" fill="black"/>
</svg>
