<svg width="121" height="224" viewBox="0 0 121 224" fill="none" xmlns="http://www.w3.org/2000/svg">
<rect x="0.5" y="0.5" width="120" height="223" rx="4.5" stroke="#535353"/>
<path d="M75.2349 120.14L64.6566 101.862C64.2978 101.238 63.8193 100.692 63.2487 100.254C62.6782 99.8154 62.0267 99.4943 61.3317 99.3086C60.6367 99.123 59.9119 99.0764 59.1988 99.1716C58.4858 99.2667 57.7986 99.5018 57.1766 99.8632C56.3333 100.34 55.6549 101 55.1599 101.862L44.5999 120.14C44.2376 120.759 44.0018 121.443 43.9062 122.154C43.8106 122.864 43.8572 123.587 44.0431 124.279C44.229 124.972 44.5506 125.62 44.9892 126.188C45.4279 126.755 45.9748 127.229 46.5983 127.583C47.4233 128.097 48.3583 128.353 49.3299 128.353H70.5049C71.2248 128.351 71.9371 128.207 72.6013 127.929C73.2654 127.651 73.8684 127.245 74.3757 126.735C74.883 126.224 75.2848 125.618 75.558 124.952C75.8313 124.286 75.9707 123.573 75.9683 122.853C75.9683 121.9 75.7116 120.965 75.2349 120.14ZM47.8449 121.955L58.3683 103.695C58.8633 102.833 59.9999 102.503 60.8433 103.017C61.1366 103.163 61.3749 103.402 61.5399 103.695L72.0633 121.955C72.5583 122.835 72.2649 123.917 71.3849 124.448C71.1099 124.613 70.7983 124.705 70.4866 124.705H49.3849C48.3766 124.687 47.5516 123.862 47.5699 122.853C47.5699 122.542 47.6433 122.23 47.8083 121.955H47.8449ZM59.9449 114.658C57.9283 114.658 56.3333 113.027 56.3333 111.01C56.3333 108.975 57.9283 107.343 59.9449 107.343C60.9174 107.343 61.85 107.729 62.5377 108.417C63.2253 109.105 63.6116 110.037 63.6116 111.01C63.6116 113.027 61.9616 114.658 59.9083 114.658H59.9449ZM55.3433 122.872C53.3266 122.872 51.6949 121.24 51.6949 119.223C51.6949 117.207 53.3266 115.575 55.3433 115.575C57.3599 115.575 59.0099 117.207 59.0099 119.223C59.0099 121.24 57.3599 122.872 55.3433 122.872ZM64.4733 122.872C63.5072 122.867 62.582 122.481 61.8988 121.798C61.2157 121.114 60.8298 120.189 60.8249 119.223C60.8298 118.257 61.2157 117.332 61.8988 116.649C62.582 115.966 63.5072 115.58 64.4733 115.575C66.4899 115.575 68.1399 117.207 68.1399 119.223C68.1399 121.24 66.4899 122.872 64.4733 122.872Z" fill="#535353"/>
<line x1="4.37114e-08" y1="183.5" x2="121" y2="183.5" stroke="#535353"/>
<line x1="4.37114e-08" y1="39.5" x2="121" y2="39.5" stroke="#535353"/>
<path d="M31 184C31 191.691 34.0553 199.068 39.4939 204.506C44.9325 209.945 52.3087 213 60 213C67.6913 213 75.0675 209.945 80.5061 204.506C85.9446 199.068 89 191.691 89 184L87.6407 184C87.6407 191.331 84.7285 198.361 79.5449 203.545C74.3613 208.729 67.3308 211.641 60 211.641C52.6692 211.641 45.6387 208.729 40.4551 203.545C35.2715 198.361 32.3593 191.331 32.3593 184L31 184Z" fill="#535353"/>
<path d="M31 39C31 31.3087 34.0553 23.9325 39.4939 18.4939C44.9325 13.0553 52.3087 10 60 10C67.6913 10 75.0675 13.0553 80.5061 18.4939C85.9446 23.9325 89 31.3087 89 39L87.6407 39C87.6407 31.6692 84.7285 24.6387 79.5449 19.4551C74.3613 14.2715 67.3308 11.3593 60 11.3593C52.6692 11.3593 45.6387 14.2715 40.4551 19.4551C35.2715 24.6387 32.3593 31.6692 32.3593 39L31 39Z" fill="#535353"/>
</svg>
