<svg width="42" height="43" viewBox="0 0 42 43" fill="none" xmlns="http://www.w3.org/2000/svg">
<g clip-path="url(#clip0_798_1549)">
<path d="M17.8604 17.8966H23.0211V26.1076C22.3176 26.4594 21.3796 26.5766 20.6761 26.5766C18.8001 26.5766 17.8604 25.6386 17.8604 23.5264V17.8966ZM41.4329 26.3246C38.7676 37.6104 27.4591 44.5981 16.1751 41.9329C4.88938 39.2694 -2.09836 27.9591 0.566885 16.6751C3.23214 5.38938 14.5406 -1.59836 25.8246 1.06689C37.1104 3.73214 44.0981 15.0406 41.4329 26.3246ZM30.5286 16.0206C30.5214 15.6186 30.3585 15.2351 30.0742 14.9508C29.7899 14.6665 29.4064 14.5036 29.0044 14.4964H26.1886L19.7381 7.10788C19.1519 6.40439 18.2139 6.16989 17.2759 6.40439L15.0464 7.10613C14.6946 7.22338 14.5774 7.69239 14.8119 7.92689L21.8486 14.6119H11.1754C10.8236 14.6119 10.5891 14.8464 10.5891 15.1981V16.3706C10.5891 17.1914 11.2926 17.8949 12.1134 17.8949H13.7549V23.5246C13.7549 27.7474 15.9826 30.2096 19.7364 30.2096C20.9089 30.2096 21.8469 30.0924 23.0211 29.6234V33.3771C23.0211 34.4324 23.8419 35.2531 24.8971 35.2531H26.5386C26.7214 35.2416 26.8937 35.1637 27.0232 35.0342C27.1527 34.9047 27.2306 34.7324 27.2421 34.5496V17.7794H29.9406C30.2924 17.7794 30.5269 17.5449 30.5269 17.1931L30.5286 16.0206Z" fill="#D640FF"/>
</g>
<defs>
<clipPath id="clip0_798_1549">
<rect width="42" height="42" fill="white" transform="translate(0 0.5)"/>
</clipPath>
</defs>
</svg>
