<svg width="44" height="45" viewBox="0 0 44 45" fill="none" xmlns="http://www.w3.org/2000/svg">
<path d="M41.9787 10.8126C41.7808 10.689 41.5547 10.6179 41.3216 10.6059C41.0886 10.5939 40.8563 10.6413 40.6467 10.7438C33.2681 14.3532 27.9984 12.662 22.428 10.8779C16.5842 9.00618 10.5256 7.07259 2.15531 11.1598C1.92144 11.272 1.72407 11.448 1.586 11.6676C1.44792 11.8872 1.37478 12.1413 1.375 12.4007V33.0137C1.37497 33.247 1.43429 33.4764 1.5474 33.6805C1.6605 33.8845 1.82366 34.0564 2.02153 34.18C2.21939 34.3036 2.44545 34.3749 2.67842 34.387C2.9114 34.3992 3.14364 34.3518 3.35328 34.2495C10.7319 30.6401 16.0016 32.3313 21.5806 34.1154C24.8875 35.1724 28.2562 36.2501 32.065 36.2501C35.0023 36.2501 38.2061 35.6107 41.8464 33.8335C42.0776 33.7206 42.2725 33.5451 42.4089 33.327C42.5454 33.1088 42.6178 32.8568 42.6181 32.5995V11.9865C42.6202 11.7526 42.5626 11.522 42.4507 11.3166C42.3388 11.1112 42.1764 10.9377 41.9787 10.8126ZM39.875 31.7246C32.8969 34.8476 27.8008 33.2182 22.4194 31.4977C19.1125 30.4407 15.7437 29.3631 11.935 29.3631C9.25908 29.3761 6.61039 29.9011 4.13188 30.9099V13.2756C11.11 10.1526 16.2061 11.782 21.5875 13.5024C26.9689 15.2229 32.5084 17.0001 39.875 14.0937V31.7246ZM22 17.0001C20.9122 17.0001 19.8488 17.3227 18.9444 17.927C18.0399 18.5314 17.3349 19.3903 16.9187 20.3953C16.5024 21.4003 16.3935 22.5062 16.6057 23.5731C16.8179 24.64 17.3417 25.62 18.1109 26.3892C18.8801 27.1584 19.8601 27.6822 20.927 27.8944C21.9939 28.1066 23.0998 27.9977 24.1048 27.5814C25.1097 27.1651 25.9687 26.4602 26.5731 25.5557C27.1774 24.6513 27.5 23.5879 27.5 22.5001C27.5 21.0414 26.9205 19.6425 25.8891 18.611C24.8576 17.5796 23.4587 17.0001 22 17.0001ZM22 25.2501C21.4561 25.2501 20.9244 25.0888 20.4722 24.7866C20.0199 24.4845 19.6675 24.055 19.4593 23.5525C19.2512 23.05 19.1967 22.497 19.3028 21.9636C19.4089 21.4301 19.6709 20.9401 20.0555 20.5555C20.4401 20.171 20.9301 19.909 21.4635 19.8029C21.9969 19.6968 22.5499 19.7513 23.0524 19.9594C23.5549 20.1676 23.9844 20.52 24.2865 20.9723C24.5887 21.4245 24.75 21.9562 24.75 22.5001C24.75 23.2294 24.4603 23.9289 23.9445 24.4446C23.4288 24.9604 22.7293 25.2501 22 25.2501ZM9.625 17.0001V25.2501C9.625 25.6148 9.48013 25.9645 9.22227 26.2224C8.96441 26.4802 8.61467 26.6251 8.25 26.6251C7.88533 26.6251 7.53559 26.4802 7.27773 26.2224C7.01987 25.9645 6.875 25.6148 6.875 25.2501V17.0001C6.875 16.6354 7.01987 16.2857 7.27773 16.0278C7.53559 15.77 7.88533 15.6251 8.25 15.6251C8.61467 15.6251 8.96441 15.77 9.22227 16.0278C9.48013 16.2857 9.625 16.6354 9.625 17.0001ZM34.375 28.0001V19.7501C34.375 19.3854 34.5199 19.0357 34.7777 18.7778C35.0356 18.52 35.3853 18.3751 35.75 18.3751C36.1147 18.3751 36.4644 18.52 36.7223 18.7778C36.9801 19.0357 37.125 19.3854 37.125 19.7501V28.0001C37.125 28.3648 36.9801 28.7145 36.7223 28.9724C36.4644 29.2302 36.1147 29.3751 35.75 29.3751C35.3853 29.3751 35.0356 29.2302 34.7777 28.9724C34.5199 28.7145 34.375 28.3648 34.375 28.0001Z" fill="#006AFF"/>
</svg>
