<svg width="34" height="34" viewBox="0 0 34 34" fill="none" xmlns="http://www.w3.org/2000/svg">
<path fill-rule="evenodd" clip-rule="evenodd" d="M15.5833 2.8335C13.7047 2.8335 11.903 3.57977 10.5746 4.90816C9.24626 6.23654 8.49998 8.03821 8.49998 9.91683C8.49998 11.7954 9.24626 13.5971 10.5746 14.9255C11.903 16.2539 13.7047 17.0002 15.5833 17.0002C17.4619 17.0002 19.2636 16.2539 20.592 14.9255C21.9204 13.5971 22.6666 11.7954 22.6666 9.91683C22.6666 8.03821 21.9204 6.23654 20.592 4.90816C19.2636 3.57977 17.4619 2.8335 15.5833 2.8335ZM15.5833 18.4168C12.1904 18.4168 9.10206 19.4 6.83115 20.7855C5.69781 21.4768 4.72881 22.2928 4.02898 23.1797C3.34048 24.0495 2.83331 25.0936 2.83331 26.2085C2.83331 27.4056 3.41556 28.3491 4.25423 29.022C5.04756 29.6595 6.09448 30.0817 7.20656 30.3763C9.44206 30.9671 12.4256 31.1668 15.5833 31.1668C15.9101 31.1668 16.2336 31.1645 16.5537 31.1597C16.791 31.1565 17.0236 31.0937 17.2303 30.9771C17.437 30.8605 17.611 30.6939 17.7365 30.4925C17.8621 30.2912 17.935 30.0615 17.9486 29.8246C17.9622 29.5877 17.9161 29.3512 17.8146 29.1367C17.2774 27.9997 16.9992 26.7577 17 25.5002C17 23.7265 17.5426 22.0832 18.4691 20.7217C18.6068 20.5194 18.6897 20.2849 18.7098 20.041C18.7299 19.7971 18.6865 19.5521 18.5838 19.33C18.4811 19.1078 18.3226 18.9161 18.1237 18.7735C17.9248 18.6308 17.6924 18.5421 17.4491 18.516C16.839 18.4499 16.217 18.4168 15.5833 18.4168ZM23.4968 21.4938C23.2296 21.2358 22.8718 21.093 22.5003 21.0962C22.1289 21.0994 21.7736 21.2484 21.5109 21.5111C21.2482 21.7737 21.0993 22.1291 21.096 22.5005C21.0928 22.872 21.2356 23.2298 21.4936 23.497L23.4968 25.5002L21.4936 27.5033C21.3583 27.634 21.2504 27.7903 21.1762 27.9632C21.1019 28.136 21.0628 28.3219 21.0612 28.51C21.0596 28.6981 21.0954 28.8847 21.1666 29.0588C21.2379 29.2329 21.3431 29.391 21.4761 29.5241C21.6091 29.6571 21.7673 29.7623 21.9414 29.8335C22.1155 29.9047 22.302 29.9406 22.4901 29.9389C22.6782 29.9373 22.8641 29.8982 23.037 29.824C23.2098 29.7497 23.3661 29.6418 23.4968 29.5065L25.5 27.5033L27.5031 29.5065C27.6338 29.6418 27.7902 29.7497 27.963 29.824C28.1358 29.8982 28.3217 29.9373 28.5098 29.9389C28.6979 29.9406 28.8845 29.9047 29.0586 29.8335C29.2327 29.7623 29.3909 29.6571 29.5239 29.5241C29.6569 29.391 29.7621 29.2329 29.8333 29.0588C29.9045 28.8847 29.9404 28.6981 29.9388 28.51C29.9371 28.3219 29.898 28.136 29.8238 27.9632C29.7495 27.7903 29.6416 27.634 29.5063 27.5033L27.5031 25.5002L29.5063 23.497C29.7644 23.2298 29.9072 22.872 29.9039 22.5005C29.9007 22.1291 29.7517 21.7737 29.4891 21.5111C29.2264 21.2484 28.8711 21.0994 28.4996 21.0962C28.1282 21.093 27.7703 21.2358 27.5031 21.4938L25.5 23.497L23.4968 21.4938Z" fill="#FF0000"/>
</svg>
