<svg width="34" height="34" viewBox="0 0 34 34" fill="none" xmlns="http://www.w3.org/2000/svg">
<path fill-rule="evenodd" clip-rule="evenodd" d="M8.49998 9.91683C8.49998 8.03821 9.24626 6.23654 10.5746 4.90816C11.903 3.57977 13.7047 2.8335 15.5833 2.8335C17.4619 2.8335 19.2636 3.57977 20.592 4.90816C21.9204 6.23654 22.6666 8.03821 22.6666 9.91683C22.6666 11.7954 21.9204 13.5971 20.592 14.9255C19.2636 16.2539 17.4619 17.0002 15.5833 17.0002C13.7047 17.0002 11.903 16.2539 10.5746 14.9255C9.24626 13.5971 8.49998 11.7954 8.49998 9.91683ZM6.83115 20.7855C9.10206 19.4 12.1904 18.4168 15.5833 18.4168C16.217 18.4168 16.8385 18.4499 17.4476 18.516C17.691 18.5421 17.9234 18.6308 18.1223 18.7735C18.3211 18.9161 18.4797 19.1078 18.5824 19.33C18.6851 19.5521 18.7285 19.7971 18.7084 20.041C18.6883 20.2849 18.6054 20.5194 18.4676 20.7217C17.5081 22.1303 16.9966 23.7959 17 25.5002C17 26.8035 17.2932 28.036 17.8146 29.1367C17.9161 29.3512 17.9622 29.5877 17.9486 29.8246C17.935 30.0615 17.8621 30.2912 17.7366 30.4925C17.611 30.6939 17.437 30.8605 17.2303 30.9771C17.0236 31.0937 16.791 31.1565 16.5537 31.1597C16.2326 31.1645 15.9091 31.1668 15.5833 31.1668C12.4256 31.1668 9.44206 30.9685 7.20656 30.3763C6.09448 30.0817 5.04756 29.6595 4.25423 29.022C3.41415 28.3477 2.83331 27.4056 2.83331 26.2085C2.83331 25.0936 3.34048 24.0509 4.02898 23.1782C4.72881 22.2928 5.6964 21.4782 6.83115 20.7841V20.7855ZM22.763 24.7663C22.634 25.2469 22.6339 25.7529 22.7626 26.2335C22.8913 26.7141 23.1442 27.1523 23.496 27.5041C23.8478 27.8559 24.2861 28.1089 24.7667 28.2376C25.2473 28.3662 25.7533 28.3661 26.2338 28.2372L22.763 24.7663ZM24.7661 22.7632L28.237 26.234C28.3659 25.7535 28.3661 25.2475 28.2374 24.7669C28.1087 24.2863 27.8557 23.848 27.5039 23.4962C27.1521 23.1444 26.7139 22.8915 26.2333 22.7628C25.7527 22.6341 25.2467 22.6342 24.7661 22.7632ZM19.8333 25.5002C19.8333 23.9973 20.4303 22.5559 21.493 21.4932C22.5557 20.4305 23.9971 19.8335 25.5 19.8335C27.0029 19.8335 28.4442 20.4305 29.5069 21.4932C30.5696 22.5559 31.1666 23.9973 31.1666 25.5002C31.1666 27.0031 30.5696 28.4444 29.5069 29.5071C28.4442 30.5698 27.0029 31.1668 25.5 31.1668C23.9971 31.1668 22.5557 30.5698 21.493 29.5071C20.4303 28.4444 19.8333 27.0031 19.8333 25.5002Z" fill="#E5D900"/>
</svg>
