<svg width="34" height="34" viewBox="0 0 34 34" fill="none" xmlns="http://www.w3.org/2000/svg">
<path d="M3.1875 17C3.1875 9.37125 9.37125 3.1875 17 3.1875C24.6287 3.1875 30.8125 9.37125 30.8125 17C30.8125 24.6287 24.6287 30.8125 17 30.8125C9.37125 30.8125 3.1875 24.6287 3.1875 17ZM11.6875 10.625C11.6875 11.2115 12.1635 11.6875 12.75 11.6875H14.875C15.725 11.6875 16.3087 12.0275 16.7025 12.5191C16.9207 12.7925 17.0907 13.1283 17.2012 13.4966H12.75C12.4682 13.4966 12.198 13.6085 11.9987 13.8078C11.7994 14.007 11.6875 14.2773 11.6875 14.5591C11.6875 14.8409 11.7994 15.1111 11.9987 15.3104C12.198 15.5096 12.4682 15.6216 12.75 15.6216H17.2012C17.1006 15.9778 16.9312 16.3108 16.7025 16.6019C16.3087 17.0935 15.725 17.4335 14.875 17.4335H12.75C12.542 17.4336 12.3386 17.4948 12.165 17.6094C11.9914 17.724 11.8553 17.8871 11.7735 18.0784C11.6918 18.2697 11.668 18.4807 11.7051 18.6854C11.7421 18.8901 11.8385 19.0794 11.9822 19.2298L18.003 25.5255C18.1996 25.7204 18.4645 25.8308 18.7413 25.8333C19.0181 25.8359 19.285 25.7302 19.4851 25.539C19.6852 25.3477 19.8028 25.0859 19.8128 24.8093C19.8228 24.5327 19.7244 24.2631 19.5387 24.0578L15.2249 19.5457C15.8324 19.514 16.4262 19.3534 16.9669 19.0747C17.5077 18.796 17.983 18.4056 18.3614 17.9293C18.8871 17.2567 19.238 16.4643 19.3828 15.623H21.25C21.5318 15.623 21.802 15.5111 22.0013 15.3118C22.2006 15.1125 22.3125 14.8423 22.3125 14.5605C22.3125 14.2787 22.2006 14.0085 22.0013 13.8092C21.802 13.6099 21.5318 13.498 21.25 13.498H19.3828C19.2691 12.8588 19.0406 12.2454 18.7085 11.6875H21.25C21.5318 11.6875 21.802 11.5756 22.0013 11.3763C22.2006 11.177 22.3125 10.9068 22.3125 10.625C22.3125 10.3432 22.2006 10.073 22.0013 9.8737C21.802 9.67444 21.5318 9.5625 21.25 9.5625H12.75C12.4682 9.5625 12.198 9.67444 11.9987 9.8737C11.7994 10.073 11.6875 10.3432 11.6875 10.625Z" fill="#00D5ED" fill-opacity="0.8"/>
</svg>
