<svg width="34" height="34" viewBox="0 0 34 34" fill="none" xmlns="http://www.w3.org/2000/svg">
<path d="M22.6666 8.50016C22.6666 10.0031 22.0696 11.4444 21.0069 12.5071C19.9442 13.5698 18.5029 14.1668 17 14.1668C15.4971 14.1668 14.0557 13.5698 12.993 12.5071C11.9303 11.4444 11.3333 10.0031 11.3333 8.50016C11.3333 6.99727 11.9303 5.55593 12.993 4.49322C14.0557 3.43052 15.4971 2.8335 17 2.8335C18.5029 2.8335 19.9442 3.43052 21.0069 4.49322C22.0696 5.55593 22.6666 6.99727 22.6666 8.50016ZM22.2105 19.1294C21.5404 19.1365 20.9156 19.162 20.3716 19.2342C19.4607 19.3575 18.4634 19.6493 17.6403 20.4738C16.8158 21.2969 16.524 22.2942 16.4021 23.2052C16.2916 24.024 16.2916 25.0242 16.2916 26.0867V26.3303C16.2916 27.3928 16.2916 28.393 16.4021 29.2118C16.4871 29.8507 16.6571 30.5322 17.0354 31.1668H17C5.66663 31.1668 5.66663 28.3122 5.66663 24.7918C5.66663 21.2714 10.7411 18.4168 17 18.4168C18.8785 18.4168 20.6507 18.6732 22.2105 19.1294Z" fill="#00AF0F"/>
<path fill-rule="evenodd" clip-rule="evenodd" d="M23.375 31.1667C21.0375 31.1667 19.8687 31.1667 19.1434 30.4399C18.4166 29.7146 18.4166 28.5458 18.4166 26.2083C18.4166 23.8708 18.4166 22.7021 19.1434 21.9767C19.8687 21.25 21.0375 21.25 23.375 21.25C25.7125 21.25 26.8812 21.25 27.6065 21.9767C28.3333 22.7021 28.3333 23.8708 28.3333 26.2083C28.3333 28.5458 28.3333 29.7146 27.6065 30.4399C26.8812 31.1667 25.7125 31.1667 23.375 31.1667ZM26.163 25.1402C26.3179 24.9852 26.405 24.775 26.405 24.5558C26.405 24.3366 26.3179 24.1264 26.163 23.9714C26.008 23.8164 25.7978 23.7294 25.5786 23.7294C25.3594 23.7294 25.1492 23.8164 24.9942 23.9714L22.2742 26.6914L21.7557 26.1743C21.679 26.0976 21.5879 26.0367 21.4876 25.9952C21.3873 25.9537 21.2799 25.9323 21.1713 25.9323C21.0628 25.9323 20.9553 25.9537 20.8551 25.9952C20.7548 26.0367 20.6637 26.0976 20.587 26.1743C20.5102 26.2511 20.4493 26.3422 20.4078 26.4424C20.3663 26.5427 20.3449 26.6502 20.3449 26.7587C20.3449 26.8672 20.3663 26.9747 20.4078 27.075C20.4493 27.1752 20.5102 27.2663 20.587 27.3431L21.6891 28.4453C21.7658 28.5221 21.8569 28.583 21.9572 28.6246C22.0575 28.6661 22.165 28.6875 22.2735 28.6875C22.382 28.6875 22.4895 28.6661 22.5898 28.6246C22.6901 28.583 22.7812 28.5221 22.8579 28.4453L26.163 25.1402Z" fill="#00AF0F"/>
</svg>
