<svg width="32" height="32" viewBox="0 0 32 32" fill="none" xmlns="http://www.w3.org/2000/svg">
<rect x="0.5" y="0.5" width="31" height="31" rx="15.5" stroke="#C9C9C9"/>
<g clip-path="url(#clip0_2197_2709)">
<path d="M16.746 16L19.846 12.9C19.895 12.851 19.9338 12.7929 19.9603 12.7289C19.9869 12.6649 20.0005 12.5963 20.0005 12.527C20.0005 12.4577 19.9869 12.3891 19.9603 12.3251C19.9338 12.2611 19.895 12.203 19.846 12.154C19.797 12.105 19.7389 12.0662 19.6749 12.0397C19.6109 12.0131 19.5423 11.9995 19.473 11.9995C19.4037 11.9995 19.3351 12.0131 19.2711 12.0397C19.2071 12.0662 19.149 12.105 19.1 12.154L16 15.254L12.9 12.154C12.851 12.105 12.7929 12.0662 12.7289 12.0397C12.6649 12.0131 12.5963 11.9995 12.527 11.9995C12.4577 11.9995 12.3891 12.0131 12.3251 12.0397C12.2611 12.0662 12.203 12.105 12.154 12.154C12.105 12.203 12.0662 12.2611 12.0397 12.3251C12.0131 12.3891 11.9995 12.4577 11.9995 12.527C11.9995 12.5963 12.0131 12.6649 12.0397 12.7289C12.0662 12.7929 12.105 12.851 12.154 12.9L15.254 16L12.154 19.1C12.105 19.149 12.0662 19.2071 12.0397 19.2711C12.0131 19.3351 11.9995 19.4037 11.9995 19.473C11.9995 19.5423 12.0131 19.6109 12.0397 19.6749C12.0662 19.7389 12.105 19.797 12.154 19.846C12.203 19.895 12.2611 19.9338 12.3251 19.9603C12.3891 19.9869 12.4577 20.0005 12.527 20.0005C12.5963 20.0005 12.6649 19.9869 12.7289 19.9603C12.7929 19.9338 12.851 19.895 12.9 19.846L16 16.746L19.1 19.846C19.149 19.895 19.2071 19.9338 19.2711 19.9603C19.3351 19.9869 19.4037 20.0005 19.473 20.0005C19.5423 20.0005 19.6109 19.9869 19.6749 19.9603C19.7389 19.9338 19.797 19.895 19.846 19.846C19.895 19.797 19.9338 19.7389 19.9603 19.6749C19.9869 19.6109 20.0005 19.5423 20.0005 19.473C20.0005 19.4037 19.9869 19.3351 19.9603 19.2711C19.9338 19.2071 19.895 19.149 19.846 19.1L16.746 16ZM16 24C13.8783 24 11.8434 23.1571 10.3431 21.6569C8.84285 20.1566 8 18.1217 8 16C8 13.8783 8.84285 11.8434 10.3431 10.3431C11.8434 8.84285 13.8783 8 16 8C18.1217 8 20.1566 8.84285 21.6569 10.3431C23.1571 11.8434 24 13.8783 24 16C24 18.1217 23.1571 20.1566 21.6569 21.6569C20.1566 23.1571 18.1217 24 16 24Z" fill="#F12727"/>
</g>
<defs>
<clipPath id="clip0_2197_2709">
<rect width="16" height="16" fill="white" transform="translate(8 8)"/>
</clipPath>
</defs>
</svg>
