<svg width="32" height="32" viewBox="0 0 32 32" fill="none" xmlns="http://www.w3.org/2000/svg">
<rect x="0.5" y="0.5" width="31" height="31" rx="15.5" stroke="#C9C9C9"/>
<path fill-rule="evenodd" clip-rule="evenodd" d="M10.2283 13.3133C10 13.8108 10 14.3767 10 15.5083V19.0417C10 20.6142 10 21.4 10.4883 21.8875C10.9308 22.3308 11.6192 22.3708 12.9167 22.375V18.2083C12.9167 17.7663 13.0923 17.3424 13.4048 17.0298C13.7174 16.7173 14.1413 16.5417 14.5833 16.5417H17.0833C17.5254 16.5417 17.9493 16.7173 18.2618 17.0298C18.5744 17.3424 18.75 17.7663 18.75 18.2083V22.375C20.0475 22.3708 20.7358 22.33 21.1783 21.8867C21.6667 21.3983 21.6667 20.6133 21.6667 19.0417V15.5083C21.6667 14.3767 21.6667 13.8108 21.4383 13.3133C21.2092 12.8158 20.78 12.4483 19.9208 11.7117L19.0875 10.9975C17.5333 9.66667 16.7583 9 15.8333 9C14.9083 9 14.1325 9.66583 12.5792 10.9967L11.7458 11.7108C10.8875 12.4475 10.4575 12.815 10.2292 13.3125M17.0833 22.375V18.2083H14.5833V22.375H17.0833Z" fill="#0062FF"/>
</svg>
