<svg width="32" height="32" viewBox="0 0 32 32" fill="none" xmlns="http://www.w3.org/2000/svg">
<rect x="0.5" y="0.5" width="31" height="31" rx="15.5" stroke="#C9C9C9"/>
<path d="M21.417 20.0002V18.0835C21.417 17.9724 21.3753 17.8752 21.292 17.7918C21.2087 17.7085 21.1114 17.6668 21.0003 17.6668C20.8892 17.6668 20.792 17.7085 20.7087 17.7918C20.6253 17.8752 20.5837 17.9724 20.5837 18.0835V19.9793C20.5837 20.0904 20.6045 20.1982 20.6462 20.3027C20.6878 20.4071 20.7503 20.5007 20.8337 20.5835L22.1045 21.8543C22.1878 21.9377 22.285 21.9793 22.3962 21.9793C22.5073 21.9793 22.6045 21.9377 22.6878 21.8543C22.7712 21.771 22.8128 21.6738 22.8128 21.5627C22.8128 21.4516 22.7712 21.3543 22.6878 21.271L21.417 20.0002ZM21.0212 24.3335C19.8545 24.3335 18.865 23.9307 18.0528 23.1252C17.2406 22.3196 16.8342 21.3335 16.8337 20.1668C16.8331 19.0002 17.2395 18.0141 18.0528 17.2085C18.8662 16.4029 19.8556 16.0002 21.0212 16.0002C22.1739 16.0002 23.1531 16.4066 23.9587 17.2193C24.7642 18.0321 25.167 19.0146 25.167 20.1668C25.167 21.3191 24.7642 22.3018 23.9587 23.1152C23.1531 23.9285 22.1739 24.3346 21.0212 24.3335ZM9.33366 22.6668C8.87533 22.6668 8.4831 22.5038 8.15699 22.1777C7.83088 21.8516 7.66755 21.4591 7.66699 21.0002V11.0002C7.66699 10.5418 7.83033 10.1496 8.15699 9.8235C8.48366 9.49738 8.87588 9.33405 9.33366 9.3335H22.667C23.1253 9.3335 23.5178 9.49683 23.8445 9.8235C24.1712 10.1502 24.3342 10.5424 24.3337 11.0002V14.1877C24.3337 14.4238 24.2537 14.6218 24.0937 14.7818C23.9337 14.9418 23.7359 15.0216 23.5003 15.021C23.2648 15.0204 23.067 14.9407 22.907 14.7818C22.747 14.6229 22.667 14.4249 22.667 14.1877V12.6668H9.33366V16.0002H15.5837C15.8198 16.0002 15.9934 16.1113 16.1045 16.3335C16.2156 16.5557 16.1948 16.771 16.042 16.9793C15.7364 17.4377 15.5003 17.9377 15.3337 18.4793C15.167 19.021 15.0837 19.5835 15.0837 20.1668C15.0837 20.4307 15.1012 20.6913 15.1362 20.9485C15.1712 21.2057 15.2231 21.4521 15.292 21.6877C15.3609 21.9232 15.3228 22.1454 15.1778 22.3543C15.0328 22.5632 14.8417 22.6674 14.6045 22.6668H9.33366Z" fill="#00AF0F"/>
</svg>
