<svg width="28" height="28" viewBox="0 0 28 28" fill="none" xmlns="http://www.w3.org/2000/svg">
<path d="M8.1682 14H12.5432C13.9105 14 15.1939 13.5333 16.1144 12.7435C16.6437 12.3009 17.0496 11.7291 17.2927 11.0833H8.16703C7.85761 11.0833 7.56087 10.9604 7.34208 10.7416C7.12328 10.5228 7.00037 10.2261 7.00037 9.91667C7.00037 9.60725 7.12328 9.3105 7.34208 9.09171C7.56087 8.87292 7.85761 8.75 8.16703 8.75H17.2927C17.0496 8.10428 16.6437 7.53239 16.1144 7.08983C15.1927 6.30117 13.9105 5.83333 12.5432 5.83333H8.16703C7.85761 5.83333 7.56087 5.71042 7.34208 5.49162C7.12328 5.27283 7.00037 4.97609 7.00037 4.66667C7.00037 4.35725 7.12328 4.0605 7.34208 3.84171C7.56087 3.62292 7.85761 3.5 8.16703 3.5H12.542L12.752 3.50233L12.8337 3.5H21.0004C21.3098 3.5 21.6065 3.62292 21.8253 3.84171C22.0441 4.0605 22.167 4.35725 22.167 4.66667C22.167 4.97609 22.0441 5.27283 21.8253 5.49162C21.6065 5.71042 21.3098 5.83333 21.0004 5.83333H18.1712C18.9429 6.64583 19.4764 7.6548 19.7135 8.75H21.0004C21.3098 8.75 21.6065 8.87292 21.8253 9.09171C22.0441 9.3105 22.167 9.60725 22.167 9.91667C22.167 10.2261 22.0441 10.5228 21.8253 10.7416C21.6065 10.9604 21.3098 11.0833 21.0004 11.0833H19.7135C19.4382 12.3982 18.7044 13.5963 17.6334 14.5145C16.2567 15.694 14.4239 16.3333 12.542 16.3333H11.331L18.492 22.4467C18.719 22.65 18.8573 22.934 18.8776 23.238C18.8978 23.542 18.7983 23.8419 18.6004 24.0735C18.4025 24.3051 18.1218 24.4501 17.8183 24.4775C17.5149 24.5049 17.2127 24.4125 16.9765 24.22L7.41337 16.0568L7.4017 16.0463C7.19561 15.8684 7.05853 15.6238 7.0144 15.3551C6.97026 15.0865 7.02186 14.8108 7.1602 14.5763C7.26328 14.4006 7.41056 14.255 7.58741 14.1539C7.76425 14.0527 7.96449 13.9997 8.1682 14Z" fill="#0062FF"/>
</svg>
