<svg width="32" height="32" viewBox="0 0 32 32" fill="none" xmlns="http://www.w3.org/2000/svg">
<rect x="0.5" y="0.5" width="31" height="31" rx="15.5" stroke="#C9C9C9"/>
<path d="M16 16.75C17.797 16.75 19.4312 17.2705 20.6335 18.004C21.2335 18.37 21.7465 18.802 22.117 19.2715C22.4815 19.7327 22.75 20.2847 22.75 20.875C22.75 21.5087 22.4417 22.0082 21.9977 22.3645C21.5777 22.702 21.0235 22.9255 20.4348 23.0815C19.2513 23.3942 17.6718 23.5 16 23.5C14.3282 23.5 12.7487 23.395 11.5652 23.0815C10.9765 22.9255 10.4222 22.702 10.0022 22.3645C9.5575 22.0075 9.25 21.5087 9.25 20.875C9.25 20.2847 9.5185 19.7327 9.883 19.2707C10.2535 18.802 10.7658 18.3707 11.3665 18.0032C12.5688 17.2712 14.2038 16.75 16 16.75ZM16 8.5C16.9946 8.5 17.9484 8.89509 18.6517 9.59835C19.3549 10.3016 19.75 11.2554 19.75 12.25C19.75 13.2446 19.3549 14.1984 18.6517 14.9016C17.9484 15.6049 16.9946 16 16 16C15.0054 16 14.0516 15.6049 13.3483 14.9016C12.6451 14.1984 12.25 13.2446 12.25 12.25C12.25 11.2554 12.6451 10.3016 13.3483 9.59835C14.0516 8.89509 15.0054 8.5 16 8.5Z" fill="#30D9FF"/>
</svg>
