<svg width="45" height="45" viewBox="0 0 45 45" fill="none" xmlns="http://www.w3.org/2000/svg">
<path d="M33.8906 2.91376L41.715 11.07V42.0863H12.4861V42.1875H41.8148V11.1727L33.8906 2.91376Z" fill="#909090"/>
<path d="M33.7936 2.8125H12.3862V42.0863H41.715V11.0714L33.7936 2.8125Z" fill="#F4F4F4"/>
<path d="M12.171 4.92188H3.18506V14.5223H31.4507V4.92188H12.171Z" fill="#7A7B7C"/>
<path d="M31.6012 14.3592H3.36792V4.75171H31.6012V14.3592Z" fill="#DD2025"/>
<path d="M12.7293 6.37594H10.8914V13.1259H12.337V10.8492L12.6562 10.8675C12.9665 10.8632 13.2739 10.8076 13.566 10.703C13.8229 10.6158 14.0589 10.4765 14.2593 10.2938C14.4649 10.1214 14.6264 9.90254 14.7304 9.65531C14.8728 9.24569 14.9232 8.80974 14.8781 8.37844C14.8701 8.07026 14.816 7.76502 14.7178 7.47281C14.6292 7.26161 14.4975 7.07121 14.3312 6.91382C14.1648 6.75642 13.9675 6.63548 13.7517 6.55875C13.5656 6.48985 13.3729 6.44083 13.1765 6.4125C13.0282 6.38835 12.8782 6.37612 12.7279 6.37594M12.4621 9.60188H12.337V7.52063H12.6084C12.7282 7.51199 12.8484 7.53038 12.9601 7.57443C13.0718 7.61849 13.1722 7.68709 13.2539 7.77516C13.4231 8.00158 13.5134 8.27719 13.5112 8.55984C13.5112 8.90578 13.5112 9.21938 13.199 9.44016C12.9742 9.56401 12.7181 9.62112 12.4621 9.60188ZM17.6245 6.35766C17.4684 6.35766 17.3165 6.36891 17.2096 6.37313L16.875 6.38156H15.7781V13.1316H17.069C17.5623 13.1443 18.0533 13.0607 18.5146 12.8855C18.8861 12.7388 19.2148 12.5014 19.4709 12.195C19.7218 11.8872 19.901 11.5274 19.9954 11.1417C20.1063 10.7057 20.1602 10.2571 20.1557 9.80719C20.1833 9.27584 20.1421 8.74317 20.0334 8.22234C19.9293 7.83941 19.7366 7.48631 19.4709 7.19156C19.2625 6.95322 19.0061 6.76154 18.7185 6.62906C18.4722 6.51488 18.213 6.43083 17.9465 6.37875C17.8405 6.36138 17.7333 6.35338 17.6259 6.35485M17.37 11.8913H17.2293V7.5825H17.2476C17.5375 7.54898 17.8309 7.6013 18.0914 7.73297C18.2821 7.8853 18.4376 8.07722 18.547 8.29547C18.665 8.52516 18.7331 8.77726 18.7467 9.03516C18.7593 9.34453 18.7467 9.59766 18.7467 9.80719C18.7519 10.0485 18.7363 10.2899 18.7003 10.5286C18.656 10.7734 18.5759 11.0103 18.4626 11.2317C18.3346 11.4382 18.1597 11.6117 17.9521 11.738C17.7788 11.8505 17.5732 11.9029 17.3671 11.887M24.5109 6.38156H21.0937V13.1316H22.5393V10.4541H24.3674V9.19969H22.5393V7.63594H24.5081V6.38156" fill="#464648"/>
<path d="M30.6295 28.4836C30.6295 28.4836 35.1126 27.6708 35.1126 29.2022C35.1126 30.7336 32.3352 30.1107 30.6295 28.4836ZM27.3149 28.6003C26.6025 28.7573 25.9084 28.9878 25.2435 29.288L25.806 28.0224C26.3685 26.7567 26.9521 25.0313 26.9521 25.0313C27.6217 26.1621 28.4027 27.223 29.2837 28.1982C28.6205 28.2969 27.9633 28.4322 27.3149 28.6032V28.6003ZM25.5402 19.4597C25.5402 18.1252 25.972 17.761 26.3081 17.761C26.6442 17.761 27.0224 17.9227 27.0351 19.0814C26.9254 20.2466 26.6815 21.3951 26.3081 22.5042C25.7948 21.5737 25.5299 20.5266 25.5388 19.4639L25.5402 19.4597ZM19.0026 34.2478C17.6273 33.4252 21.8868 30.8925 22.6588 30.811C22.6546 30.8124 20.4426 35.1085 19.0026 34.2478ZM36.4218 29.3836C36.4077 29.243 36.2812 27.6863 33.5109 27.7524C32.3561 27.7321 31.2018 27.8135 30.0613 27.9957C28.9559 26.8829 28.0043 25.6273 27.232 24.2621C27.7182 22.8548 28.0129 21.3885 28.1081 19.9027C28.0673 18.2152 27.6637 17.2477 26.3699 17.2617C25.0762 17.2758 24.8877 18.4078 25.0579 20.0925C25.2244 21.2247 25.5388 22.33 25.9931 23.3803C25.9931 23.3803 25.3954 25.2408 24.6051 27.0914C23.8148 28.9421 23.2748 29.9124 23.2748 29.9124C21.9003 30.3593 20.6065 31.024 19.4427 31.8811C18.284 32.9597 17.8129 33.788 18.4232 34.6163C18.9492 35.3307 20.7899 35.4924 22.4352 33.3366C23.3079 32.222 24.1065 31.0514 24.8259 29.8322C24.8259 29.8322 27.3346 29.1446 28.1151 28.9561C28.8956 28.7677 29.8392 28.6186 29.8392 28.6186C29.8392 28.6186 32.1299 30.9235 34.3392 30.8419C36.5484 30.7603 36.4415 29.5214 36.4274 29.3864" fill="#DD2025"/>
<path d="M33.6853 2.92078V11.1797H41.6067L33.6853 2.92078Z" fill="#909090"/>
<path d="M33.7937 2.8125V11.0714H41.7151L33.7937 2.8125Z" fill="#F4F4F4"/>
<path d="M12.6212 6.26766H10.7832V13.0177H12.2345V10.7423L12.5551 10.7606C12.8654 10.7564 13.1728 10.7008 13.4649 10.5961C13.7217 10.5089 13.9578 10.3696 14.1582 10.1869C14.3622 10.0141 14.5222 9.79524 14.6251 9.54844C14.7675 9.13882 14.8179 8.70287 14.7727 8.27157C14.7647 7.96339 14.7107 7.65815 14.6124 7.36594C14.5239 7.15474 14.3922 6.96434 14.2259 6.80695C14.0595 6.64955 13.8621 6.52861 13.6463 6.45188C13.4595 6.38231 13.2657 6.33282 13.0684 6.30422C12.92 6.28007 12.77 6.26785 12.6198 6.26766M12.354 9.4936H12.2288V7.41235H12.5016C12.6214 7.40371 12.7416 7.4221 12.8533 7.46616C12.9651 7.51021 13.0655 7.57881 13.1471 7.66688C13.3163 7.89331 13.4067 8.16892 13.4045 8.45157C13.4045 8.79751 13.4045 9.1111 13.0923 9.33188C12.8674 9.45573 12.6114 9.51144 12.3554 9.49219M17.5163 6.24938C17.3602 6.24938 17.2084 6.26063 17.1015 6.26485L16.771 6.27329H15.6741V13.0233H16.9651C17.4584 13.036 17.9494 12.9524 18.4107 12.7772C18.7821 12.6305 19.1109 12.3931 19.367 12.0867C19.6179 11.779 19.7971 11.4192 19.8915 11.0334C20.0024 10.5974 20.0563 10.1488 20.0518 9.69891C20.0793 9.16757 20.0382 8.63489 19.9295 8.11407C19.8253 7.73113 19.6327 7.37804 19.367 7.08329C19.1585 6.84494 18.9022 6.65327 18.6146 6.52079C18.3683 6.4066 18.1091 6.32255 17.8426 6.27048C17.7366 6.25311 17.6293 6.24511 17.522 6.24657M17.266 11.783H17.1254V7.47423H17.1437C17.4336 7.4407 17.727 7.49302 17.9874 7.62469C18.1782 7.77703 18.3336 7.96894 18.443 8.18719C18.5611 8.41688 18.6292 8.66898 18.6427 8.92688C18.6554 9.23626 18.6427 9.48938 18.6427 9.69891C18.6479 9.94027 18.6324 10.1816 18.5963 10.4203C18.5521 10.6651 18.472 10.902 18.3587 11.1234C18.2306 11.3299 18.0558 11.5034 17.8482 11.6297C17.6748 11.7422 17.4693 11.7946 17.2632 11.7788M24.4027 6.27329H20.9855V13.0233H22.4312V10.3458H24.2593V9.09141H22.4312V7.52766H24.3999V6.27329" fill="white"/>
</svg>
