<svg width="122" height="205" viewBox="0 0 122 205" fill="none" xmlns="http://www.w3.org/2000/svg">
<rect x="0.291193" y="0.291193" width="120.554" height="204.418" rx="2.62074" stroke="#202020" stroke-width="0.582386"/>
<line x1="-2.53345e-08" y1="169.765" x2="121.136" y2="169.765" stroke="#202020" stroke-width="0.582386"/>
<line x1="-2.53345e-08" y1="34.6522" x2="121.136" y2="34.6522" stroke="#202020" stroke-width="0.582386"/>
<path d="M39 34.5C39 28.7978 41.2652 23.3292 45.2972 19.2972C49.3292 15.2652 54.7978 13 60.5 13C66.2022 13 71.6708 15.2652 75.7028 19.2972C79.7348 23.3292 82 28.7978 82 34.5L80.9922 34.5C80.9922 29.0651 78.8332 23.8529 74.9902 20.0098C71.1471 16.1668 65.9349 14.0078 60.5 14.0078C55.0651 14.0078 49.8529 16.1668 46.0098 20.0098C42.1668 23.8529 40.0078 29.0651 40.0078 34.5L39 34.5Z" fill="#535353"/>
<path d="M82 169.5C82 175.202 79.7348 180.671 75.7028 184.703C71.6708 188.735 66.2022 191 60.5 191C54.7978 191 49.3292 188.735 45.2972 184.703C41.2652 180.671 39 175.202 39 169.5L40.0078 169.5C40.0078 174.935 42.1668 180.147 46.0098 183.99C49.8529 187.833 55.0651 189.992 60.5 189.992C65.9349 189.992 71.1471 187.833 74.9902 183.99C78.8332 180.147 80.9922 174.935 80.9922 169.5L82 169.5Z" fill="#535353"/>
<circle cx="61" cy="103" r="19" fill="#EEEEEE"/>
</svg>